<mxfile host="app.diagrams.net" agent="Mozilla/5.0 (Windows NT 10.0; Win64; x64) AppleWebKit/537.36 (KHTML, like Gecko) Chrome/131.0.0.0 Safari/537.36" version="25.0.1">
  <diagram name="Page-1" id="MgOYGvDezOGUtoUfKUWz">
    <mxGraphModel dx="3353" dy="1793" grid="1" gridSize="10" guides="1" tooltips="1" connect="1" arrows="1" fold="1" page="1" pageScale="1" pageWidth="1100" pageHeight="850" math="0" shadow="0">
      <root>
        <mxCell id="0" />
        <mxCell id="1" parent="0" />
        <mxCell id="_zZepMUgZ8aixAaHGMFi-1" value="3.1" style="swimlane;html=1;fontStyle=0;childLayout=stackLayout;horizontal=1;startSize=26;fillColor=#e0e0e0;horizontalStack=0;resizeParent=1;resizeLast=0;collapsible=1;marginBottom=0;swimlaneFillColor=#ffffff;align=center;rounded=1;shadow=0;comic=0;labelBackgroundColor=none;strokeWidth=1;fontFamily=Verdana;fontSize=12" parent="1" vertex="1">
          <mxGeometry x="-60" y="-115" width="160" height="110" as="geometry" />
        </mxCell>
        <mxCell id="_zZepMUgZ8aixAaHGMFi-2" value="&lt;div&gt;&lt;span style=&quot;font-size: 18px;&quot;&gt;ป้อน&lt;/span&gt;&lt;/div&gt;&lt;div&gt;&lt;span style=&quot;font-size: 18px;&quot;&gt;รายละเอียด&lt;/span&gt;&lt;/div&gt;&lt;div&gt;&lt;span style=&quot;font-size: 18px; background-color: initial;&quot;&gt;โครงการ&lt;/span&gt;&lt;/div&gt;" style="text;html=1;strokeColor=none;fillColor=none;spacingLeft=4;spacingRight=4;whiteSpace=wrap;overflow=hidden;rotatable=0;points=[[0,0.5],[1,0.5]];portConstraint=eastwest;align=center;" parent="_zZepMUgZ8aixAaHGMFi-1" vertex="1">
          <mxGeometry y="26" width="160" height="74" as="geometry" />
        </mxCell>
        <mxCell id="_zZepMUgZ8aixAaHGMFi-3" value="&lt;span style=&quot;font-size: 18px; text-wrap-mode: nowrap;&quot;&gt;ผู้ใช้&lt;/span&gt;" style="rounded=0;whiteSpace=wrap;html=1;" parent="1" vertex="1">
          <mxGeometry x="-600" y="49" width="120" height="60" as="geometry" />
        </mxCell>
        <mxCell id="_zZepMUgZ8aixAaHGMFi-6" value="" style="group" parent="1" vertex="1" connectable="0">
          <mxGeometry x="490" y="-94" width="190" height="30" as="geometry" />
        </mxCell>
        <mxCell id="_zZepMUgZ8aixAaHGMFi-7" value="&lt;font style=&quot;font-size: 18px;&quot;&gt;D1&lt;/font&gt;" style="html=1;dashed=0;whiteSpace=wrap;shape=mxgraph.dfd.dataStoreID;align=left;spacingLeft=3;points=[[0,0],[0.5,0],[1,0],[0,0.5],[1,0.5],[0,1],[0.5,1],[1,1]];container=0;" parent="_zZepMUgZ8aixAaHGMFi-6" vertex="1">
          <mxGeometry width="190" height="30" as="geometry" />
        </mxCell>
        <mxCell id="_zZepMUgZ8aixAaHGMFi-8" value="&lt;span style=&quot;font-size: 18px; font-weight: 400;&quot;&gt;ลูกค้า&lt;/span&gt;" style="text;strokeColor=none;fillColor=none;html=1;fontSize=24;fontStyle=1;verticalAlign=middle;align=center;container=0;" parent="_zZepMUgZ8aixAaHGMFi-6" vertex="1">
          <mxGeometry x="28.5" width="95" height="30" as="geometry" />
        </mxCell>
        <mxCell id="_zZepMUgZ8aixAaHGMFi-38" value="" style="group" parent="1" vertex="1" connectable="0">
          <mxGeometry x="490" y="-40" width="190" height="30" as="geometry" />
        </mxCell>
        <mxCell id="_zZepMUgZ8aixAaHGMFi-39" value="&lt;font style=&quot;font-size: 18px;&quot;&gt;D3&lt;/font&gt;" style="html=1;dashed=0;whiteSpace=wrap;shape=mxgraph.dfd.dataStoreID;align=left;spacingLeft=3;points=[[0,0],[0.5,0],[1,0],[0,0.5],[1,0.5],[0,1],[0.5,1],[1,1]];container=0;" parent="_zZepMUgZ8aixAaHGMFi-38" vertex="1">
          <mxGeometry width="190" height="30" as="geometry" />
        </mxCell>
        <mxCell id="_zZepMUgZ8aixAaHGMFi-40" value="&lt;span style=&quot;font-size: 18px; font-weight: 400;&quot;&gt;โครงการ&lt;/span&gt;" style="text;strokeColor=none;fillColor=none;html=1;fontSize=24;fontStyle=1;verticalAlign=middle;align=center;container=0;" parent="_zZepMUgZ8aixAaHGMFi-38" vertex="1">
          <mxGeometry x="28.5" width="95" height="30" as="geometry" />
        </mxCell>
        <mxCell id="_zZepMUgZ8aixAaHGMFi-47" value="3.1" style="swimlane;html=1;fontStyle=0;childLayout=stackLayout;horizontal=1;startSize=26;fillColor=#e0e0e0;horizontalStack=0;resizeParent=1;resizeLast=0;collapsible=1;marginBottom=0;swimlaneFillColor=#ffffff;align=center;rounded=1;shadow=0;comic=0;labelBackgroundColor=none;strokeWidth=1;fontFamily=Verdana;fontSize=12" parent="1" vertex="1">
          <mxGeometry x="-60" y="180" width="161" height="115" as="geometry" />
        </mxCell>
        <mxCell id="_zZepMUgZ8aixAaHGMFi-48" value="&lt;div&gt;&lt;span style=&quot;font-size: 18px;&quot;&gt;ป้อน&lt;/span&gt;&lt;/div&gt;&lt;div&gt;&lt;span style=&quot;font-size: 18px;&quot;&gt;รายละเอียด&lt;/span&gt;&lt;/div&gt;&lt;div&gt;&lt;span style=&quot;font-size: 18px; background-color: initial;&quot;&gt;ฟังชั่น&lt;/span&gt;&lt;span style=&quot;background-color: initial; font-size: 18px;&quot;&gt;โครงการ&lt;/span&gt;&lt;/div&gt;" style="text;html=1;strokeColor=none;fillColor=none;spacingLeft=4;spacingRight=4;whiteSpace=wrap;overflow=hidden;rotatable=0;points=[[0,0.5],[1,0.5]];portConstraint=eastwest;align=center;" parent="_zZepMUgZ8aixAaHGMFi-47" vertex="1">
          <mxGeometry y="26" width="161" height="84" as="geometry" />
        </mxCell>
        <mxCell id="_zZepMUgZ8aixAaHGMFi-71" value="" style="endArrow=classic;html=1;rounded=0;edgeStyle=orthogonalEdgeStyle;entryX=0.004;entryY=0.663;entryDx=0;entryDy=0;entryPerimeter=0;" parent="1" edge="1">
          <mxGeometry width="50" height="50" relative="1" as="geometry">
            <mxPoint x="-480" y="50" as="sourcePoint" />
            <mxPoint x="-59" y="-80" as="targetPoint" />
            <Array as="points">
              <mxPoint x="-470" y="50" />
              <mxPoint x="-350" y="50" />
              <mxPoint x="-350" y="-80" />
            </Array>
          </mxGeometry>
        </mxCell>
        <mxCell id="_zZepMUgZ8aixAaHGMFi-72" value="ข้อมูลโครงการ" style="edgeLabel;html=1;align=center;verticalAlign=middle;resizable=0;points=[];rotation=0;" parent="_zZepMUgZ8aixAaHGMFi-71" vertex="1" connectable="0">
          <mxGeometry x="-0.0639" y="2" relative="1" as="geometry">
            <mxPoint x="126" as="offset" />
          </mxGeometry>
        </mxCell>
        <mxCell id="_zZepMUgZ8aixAaHGMFi-74" style="edgeStyle=orthogonalEdgeStyle;rounded=0;orthogonalLoop=1;jettySize=auto;html=1;entryX=1;entryY=0.5;entryDx=0;entryDy=0;exitX=0;exitY=0.5;exitDx=0;exitDy=0;" parent="1" source="_zZepMUgZ8aixAaHGMFi-7" edge="1">
          <mxGeometry relative="1" as="geometry">
            <mxPoint x="100" y="-81" as="targetPoint" />
            <mxPoint x="480" y="-59" as="sourcePoint" />
          </mxGeometry>
        </mxCell>
        <mxCell id="_zZepMUgZ8aixAaHGMFi-75" value="ข้อมูลลูกค้า" style="edgeLabel;html=1;align=center;verticalAlign=middle;resizable=0;points=[];" parent="_zZepMUgZ8aixAaHGMFi-74" vertex="1" connectable="0">
          <mxGeometry x="0.236" y="2" relative="1" as="geometry">
            <mxPoint x="51" as="offset" />
          </mxGeometry>
        </mxCell>
        <mxCell id="_zZepMUgZ8aixAaHGMFi-185" value="" style="endArrow=classic;html=1;rounded=0;exitX=0.984;exitY=0.373;exitDx=0;exitDy=0;exitPerimeter=0;entryX=0;entryY=0.5;entryDx=0;entryDy=0;" parent="1" edge="1">
          <mxGeometry width="50" height="50" relative="1" as="geometry">
            <mxPoint x="102" y="59.09" as="sourcePoint" />
            <mxPoint x="490" y="-40.00000000000023" as="targetPoint" />
            <Array as="points">
              <mxPoint x="440" y="59" />
              <mxPoint x="440" y="-40" />
            </Array>
          </mxGeometry>
        </mxCell>
        <mxCell id="_zZepMUgZ8aixAaHGMFi-186" value="ข้อมูลโครงการ" style="edgeLabel;html=1;align=center;verticalAlign=middle;resizable=0;points=[];" parent="_zZepMUgZ8aixAaHGMFi-185" vertex="1" connectable="0">
          <mxGeometry x="-0.0904" relative="1" as="geometry">
            <mxPoint x="-24" y="-1" as="offset" />
          </mxGeometry>
        </mxCell>
        <mxCell id="MPjmsZJKt_5a_R5_JzjR-2" value="ข้อมูลโครงการ" style="edgeLabel;html=1;align=center;verticalAlign=middle;resizable=0;points=[];" parent="_zZepMUgZ8aixAaHGMFi-185" vertex="1" connectable="0">
          <mxGeometry x="-0.0904" relative="1" as="geometry">
            <mxPoint x="-265" y="-43" as="offset" />
          </mxGeometry>
        </mxCell>
        <mxCell id="aK20y8ryzcUxQ-ocUpJG-1" value="ข้อมูลฟังชั่นโครงการ" style="edgeLabel;html=1;align=center;verticalAlign=middle;resizable=0;points=[];" vertex="1" connectable="0" parent="_zZepMUgZ8aixAaHGMFi-185">
          <mxGeometry x="-0.0904" relative="1" as="geometry">
            <mxPoint x="-253" y="251" as="offset" />
          </mxGeometry>
        </mxCell>
        <mxCell id="_zZepMUgZ8aixAaHGMFi-188" value="&lt;font style=&quot;font-size: 18px;&quot;&gt;D3&lt;/font&gt;" style="html=1;dashed=0;whiteSpace=wrap;shape=mxgraph.dfd.dataStoreID;align=left;spacingLeft=3;points=[[0,0],[0.5,0],[1,0],[0,0.5],[1,0.5],[0,1],[0.5,1],[1,1]];container=0;" parent="1" vertex="1">
          <mxGeometry x="491" y="284" width="190" height="30" as="geometry" />
        </mxCell>
        <mxCell id="_zZepMUgZ8aixAaHGMFi-189" value="&lt;span style=&quot;font-size: 18px; font-weight: 400;&quot;&gt;ฟังชั่นโครงการ (โมดูล)&lt;/span&gt;" style="text;strokeColor=none;fillColor=none;html=1;fontSize=24;fontStyle=1;verticalAlign=middle;align=left;container=0;" parent="1" vertex="1">
          <mxGeometry x="531" y="284" width="171.5" height="30" as="geometry" />
        </mxCell>
        <mxCell id="_zZepMUgZ8aixAaHGMFi-190" value="3.1" style="swimlane;html=1;fontStyle=0;childLayout=stackLayout;horizontal=1;startSize=26;fillColor=#e0e0e0;horizontalStack=0;resizeParent=1;resizeLast=0;collapsible=1;marginBottom=0;swimlaneFillColor=#ffffff;align=center;rounded=1;shadow=0;comic=0;labelBackgroundColor=none;strokeWidth=1;fontFamily=Verdana;fontSize=12" parent="1" vertex="1">
          <mxGeometry x="-60" y="540" width="160" height="110" as="geometry" />
        </mxCell>
        <mxCell id="_zZepMUgZ8aixAaHGMFi-191" value="&lt;div&gt;&lt;span style=&quot;font-size: 18px;&quot;&gt;ป้อน&lt;/span&gt;&lt;/div&gt;&lt;div&gt;&lt;span style=&quot;font-size: 18px;&quot;&gt;รายละเอียด&lt;/span&gt;&lt;/div&gt;&lt;div&gt;&lt;span style=&quot;font-size: 18px;&quot;&gt;งาน&lt;/span&gt;&lt;/div&gt;" style="text;html=1;strokeColor=none;fillColor=none;spacingLeft=4;spacingRight=4;whiteSpace=wrap;overflow=hidden;rotatable=0;points=[[0,0.5],[1,0.5]];portConstraint=eastwest;align=center;" parent="_zZepMUgZ8aixAaHGMFi-190" vertex="1">
          <mxGeometry y="26" width="160" height="74" as="geometry" />
        </mxCell>
        <mxCell id="_zZepMUgZ8aixAaHGMFi-192" value="&lt;font style=&quot;font-size: 18px;&quot;&gt;D3&lt;/font&gt;" style="html=1;dashed=0;whiteSpace=wrap;shape=mxgraph.dfd.dataStoreID;align=left;spacingLeft=3;points=[[0,0],[0.5,0],[1,0],[0,0.5],[1,0.5],[0,1],[0.5,1],[1,1]];container=0;" parent="1" vertex="1">
          <mxGeometry x="489" y="580" width="190" height="30" as="geometry" />
        </mxCell>
        <mxCell id="_zZepMUgZ8aixAaHGMFi-193" value="&lt;span style=&quot;font-size: 18px; font-weight: 400;&quot;&gt;งาน&lt;/span&gt;" style="text;strokeColor=none;fillColor=none;html=1;fontSize=24;fontStyle=1;verticalAlign=middle;align=center;container=0;" parent="1" vertex="1">
          <mxGeometry x="529" y="580" width="95" height="30" as="geometry" />
        </mxCell>
        <mxCell id="_zZepMUgZ8aixAaHGMFi-194" value="" style="endArrow=classic;html=1;rounded=0;entryX=0;entryY=0.5;entryDx=0;entryDy=0;exitX=0.984;exitY=0.373;exitDx=0;exitDy=0;exitPerimeter=0;" parent="1" edge="1">
          <mxGeometry width="50" height="50" relative="1" as="geometry">
            <mxPoint x="98.44000000000005" y="595.6620000000001" as="sourcePoint" />
            <mxPoint x="488.99999999999994" y="595.33" as="targetPoint" />
          </mxGeometry>
        </mxCell>
        <mxCell id="_zZepMUgZ8aixAaHGMFi-195" value="สร้างงาน" style="edgeLabel;html=1;align=center;verticalAlign=middle;resizable=0;points=[];" parent="_zZepMUgZ8aixAaHGMFi-194" vertex="1" connectable="0">
          <mxGeometry x="-0.0904" relative="1" as="geometry">
            <mxPoint x="23" as="offset" />
          </mxGeometry>
        </mxCell>
        <mxCell id="_zZepMUgZ8aixAaHGMFi-196" value="3.1" style="swimlane;html=1;fontStyle=0;childLayout=stackLayout;horizontal=1;startSize=26;fillColor=#e0e0e0;horizontalStack=0;resizeParent=1;resizeLast=0;collapsible=1;marginBottom=0;swimlaneFillColor=#ffffff;align=center;rounded=1;shadow=0;comic=0;labelBackgroundColor=none;strokeWidth=1;fontFamily=Verdana;fontSize=12" parent="1" vertex="1">
          <mxGeometry x="-60" y="681" width="160" height="110" as="geometry" />
        </mxCell>
        <mxCell id="_zZepMUgZ8aixAaHGMFi-197" value="&lt;span style=&quot;font-size: 18px;&quot;&gt;เปลี่ยน&lt;/span&gt;&lt;div&gt;&lt;span style=&quot;font-size: 18px;&quot;&gt;สถานะงาน&lt;/span&gt;&lt;/div&gt;" style="text;html=1;strokeColor=none;fillColor=none;spacingLeft=4;spacingRight=4;whiteSpace=wrap;overflow=hidden;rotatable=0;points=[[0,0.5],[1,0.5]];portConstraint=eastwest;align=center;" parent="_zZepMUgZ8aixAaHGMFi-196" vertex="1">
          <mxGeometry y="26" width="160" height="74" as="geometry" />
        </mxCell>
        <mxCell id="_zZepMUgZ8aixAaHGMFi-198" value="" style="endArrow=classic;html=1;rounded=0;entryX=0;entryY=0.5;entryDx=0;entryDy=0;exitX=0.984;exitY=0.373;exitDx=0;exitDy=0;exitPerimeter=0;" parent="1" edge="1">
          <mxGeometry width="50" height="50" relative="1" as="geometry">
            <mxPoint x="97.44000000000005" y="716.3320000000001" as="sourcePoint" />
            <mxPoint x="487.99999999999994" y="716" as="targetPoint" />
          </mxGeometry>
        </mxCell>
        <mxCell id="_zZepMUgZ8aixAaHGMFi-199" value="สร้างโครงการ" style="edgeLabel;html=1;align=center;verticalAlign=middle;resizable=0;points=[];" parent="_zZepMUgZ8aixAaHGMFi-198" vertex="1" connectable="0">
          <mxGeometry x="-0.0904" relative="1" as="geometry">
            <mxPoint x="23" as="offset" />
          </mxGeometry>
        </mxCell>
        <mxCell id="_zZepMUgZ8aixAaHGMFi-207" value="3.1" style="swimlane;html=1;fontStyle=0;childLayout=stackLayout;horizontal=1;startSize=26;fillColor=#e0e0e0;horizontalStack=0;resizeParent=1;resizeLast=0;collapsible=1;marginBottom=0;swimlaneFillColor=#ffffff;align=center;rounded=1;shadow=0;comic=0;labelBackgroundColor=none;strokeWidth=1;fontFamily=Verdana;fontSize=12" parent="1" vertex="1">
          <mxGeometry x="-59" y="35" width="160" height="110" as="geometry" />
        </mxCell>
        <mxCell id="_zZepMUgZ8aixAaHGMFi-208" value="&lt;div&gt;&lt;span style=&quot;font-size: 18px;&quot;&gt;สร้าง&lt;/span&gt;&lt;/div&gt;&lt;div&gt;&lt;span style=&quot;font-size: 18px;&quot;&gt;โครงการ&lt;/span&gt;&lt;/div&gt;" style="text;html=1;strokeColor=none;fillColor=none;spacingLeft=4;spacingRight=4;whiteSpace=wrap;overflow=hidden;rotatable=0;points=[[0,0.5],[1,0.5]];portConstraint=eastwest;align=center;" parent="_zZepMUgZ8aixAaHGMFi-207" vertex="1">
          <mxGeometry y="26" width="160" height="84" as="geometry" />
        </mxCell>
        <mxCell id="_zZepMUgZ8aixAaHGMFi-210" value="" style="endArrow=classic;html=1;rounded=0;entryX=0.5;entryY=0;entryDx=0;entryDy=0;" parent="1" target="_zZepMUgZ8aixAaHGMFi-207" edge="1">
          <mxGeometry width="50" height="50" relative="1" as="geometry">
            <mxPoint x="20.96" y="-5" as="sourcePoint" />
            <mxPoint x="20.96" y="30" as="targetPoint" />
          </mxGeometry>
        </mxCell>
        <mxCell id="TuHfSNKIh0hlEcoiUDWU-4" value="" style="endArrow=classic;html=1;rounded=0;entryX=1;entryY=0.5;entryDx=0;entryDy=0;exitX=0.011;exitY=0.211;exitDx=0;exitDy=0;exitPerimeter=0;" parent="1" edge="1">
          <mxGeometry width="50" height="50" relative="1" as="geometry">
            <mxPoint x="-59.99999999999978" y="70.00399999999993" as="sourcePoint" />
            <mxPoint x="-482.76" y="70.28" as="targetPoint" />
          </mxGeometry>
        </mxCell>
        <mxCell id="TuHfSNKIh0hlEcoiUDWU-5" value="แสดง&#39;ข้อมูลโครงการ" style="edgeLabel;html=1;align=center;verticalAlign=middle;resizable=0;points=[];" parent="1" vertex="1" connectable="0">
          <mxGeometry x="-220.00069750316595" y="79.00105284844742" as="geometry">
            <mxPoint x="3" y="-4" as="offset" />
          </mxGeometry>
        </mxCell>
        <mxCell id="TuHfSNKIh0hlEcoiUDWU-9" value="" style="endArrow=classic;html=1;rounded=0;entryX=1.023;entryY=0.349;entryDx=0;entryDy=0;entryPerimeter=0;" parent="1" target="_zZepMUgZ8aixAaHGMFi-208" edge="1">
          <mxGeometry width="50" height="50" relative="1" as="geometry">
            <mxPoint x="490" y="-10" as="sourcePoint" />
            <mxPoint x="127" y="89.09" as="targetPoint" />
            <Array as="points">
              <mxPoint x="465" y="-10" />
              <mxPoint x="465" y="89" />
            </Array>
          </mxGeometry>
        </mxCell>
        <mxCell id="TuHfSNKIh0hlEcoiUDWU-10" value="รายงานข้อมูลโครงการ" style="edgeLabel;html=1;align=center;verticalAlign=middle;resizable=0;points=[];" parent="TuHfSNKIh0hlEcoiUDWU-9" vertex="1" connectable="0">
          <mxGeometry x="-0.0904" relative="1" as="geometry">
            <mxPoint x="-24" y="-1" as="offset" />
          </mxGeometry>
        </mxCell>
        <mxCell id="aK20y8ryzcUxQ-ocUpJG-2" value="3.1" style="swimlane;html=1;fontStyle=0;childLayout=stackLayout;horizontal=1;startSize=26;fillColor=#e0e0e0;horizontalStack=0;resizeParent=1;resizeLast=0;collapsible=1;marginBottom=0;swimlaneFillColor=#ffffff;align=center;rounded=1;shadow=0;comic=0;labelBackgroundColor=none;strokeWidth=1;fontFamily=Verdana;fontSize=12" vertex="1" parent="1">
          <mxGeometry x="-60" y="344.07000000000005" width="160" height="110" as="geometry" />
        </mxCell>
        <mxCell id="aK20y8ryzcUxQ-ocUpJG-3" value="&lt;div&gt;&lt;span style=&quot;font-size: 18px;&quot;&gt;สร้าง&lt;/span&gt;&lt;/div&gt;&lt;div&gt;&lt;span style=&quot;font-size: 18px;&quot;&gt;ฟังชั่นโครงการ&lt;/span&gt;&lt;/div&gt;" style="text;html=1;strokeColor=none;fillColor=none;spacingLeft=4;spacingRight=4;whiteSpace=wrap;overflow=hidden;rotatable=0;points=[[0,0.5],[1,0.5]];portConstraint=eastwest;align=center;" vertex="1" parent="aK20y8ryzcUxQ-ocUpJG-2">
          <mxGeometry y="26" width="160" height="84" as="geometry" />
        </mxCell>
        <mxCell id="aK20y8ryzcUxQ-ocUpJG-4" value="" style="endArrow=classic;html=1;rounded=0;entryX=0.5;entryY=0;entryDx=0;entryDy=0;" edge="1" parent="1">
          <mxGeometry width="50" height="50" relative="1" as="geometry">
            <mxPoint x="20.66" y="295" as="sourcePoint" />
            <mxPoint x="20.7" y="335" as="targetPoint" />
          </mxGeometry>
        </mxCell>
        <mxCell id="aK20y8ryzcUxQ-ocUpJG-5" value="" style="endArrow=classic;html=1;rounded=0;exitX=0.984;exitY=0.373;exitDx=0;exitDy=0;exitPerimeter=0;entryX=0;entryY=0.5;entryDx=0;entryDy=0;" edge="1" parent="1">
          <mxGeometry width="50" height="50" relative="1" as="geometry">
            <mxPoint x="102" y="383.15999999999997" as="sourcePoint" />
            <mxPoint x="490" y="284.06999999999977" as="targetPoint" />
            <Array as="points">
              <mxPoint x="440" y="383.07" />
              <mxPoint x="440" y="284.07" />
            </Array>
          </mxGeometry>
        </mxCell>
        <mxCell id="aK20y8ryzcUxQ-ocUpJG-6" value="ข้อมูลโครงการ" style="edgeLabel;html=1;align=center;verticalAlign=middle;resizable=0;points=[];" vertex="1" connectable="0" parent="aK20y8ryzcUxQ-ocUpJG-5">
          <mxGeometry x="-0.0904" relative="1" as="geometry">
            <mxPoint x="-24" y="-1" as="offset" />
          </mxGeometry>
        </mxCell>
        <mxCell id="aK20y8ryzcUxQ-ocUpJG-9" value="" style="endArrow=classic;html=1;rounded=0;entryX=1.023;entryY=0.349;entryDx=0;entryDy=0;entryPerimeter=0;" edge="1" parent="1">
          <mxGeometry width="50" height="50" relative="1" as="geometry">
            <mxPoint x="490" y="314.07" as="sourcePoint" />
            <mxPoint x="105" y="414.07" as="targetPoint" />
            <Array as="points">
              <mxPoint x="465" y="314.07" />
              <mxPoint x="465" y="413.07" />
            </Array>
          </mxGeometry>
        </mxCell>
        <mxCell id="aK20y8ryzcUxQ-ocUpJG-10" value="รายงานข้อมูลโครงการ" style="edgeLabel;html=1;align=center;verticalAlign=middle;resizable=0;points=[];" vertex="1" connectable="0" parent="aK20y8ryzcUxQ-ocUpJG-9">
          <mxGeometry x="-0.0904" relative="1" as="geometry">
            <mxPoint x="-24" y="-1" as="offset" />
          </mxGeometry>
        </mxCell>
      </root>
    </mxGraphModel>
  </diagram>
</mxfile>
